<?xml version="1.0" encoding="UTF-8"?>
<!DOCTYPE svg PUBLIC "-//W3C//DTD SVG 1.1//EN" "http://www.w3.org/Graphics/SVG/1.1/DTD/svg11.dtd">
<svg xmlns="http://www.w3.org/2000/svg" version="1.1" width="148px" height="148px" style="shape-rendering:geometricPrecision; text-rendering:geometricPrecision; image-rendering:optimizeQuality; fill-rule:evenodd; clip-rule:evenodd" xmlns:xlink="http://www.w3.org/1999/xlink">
<g><path style="opacity:1" fill="#eb5b11" d="M 51.5,0.5 C 66.1667,0.5 80.8333,0.5 95.5,0.5C 95.5,1.83333 95.5,3.16667 95.5,4.5C 98.1667,4.5 100.833,4.5 103.5,4.5C 103.5,6.16667 103.5,7.83333 103.5,9.5C 106.5,9.5 109.5,9.5 112.5,9.5C 112.5,11.1667 112.5,12.8333 112.5,14.5C 115.5,14.5 118.5,14.5 121.5,14.5C 121.5,15.8333 121.5,17.1667 121.5,18.5C 122.833,18.5 124.167,18.5 125.5,18.5C 125.5,20.1667 125.5,21.8333 125.5,23.5C 126.833,23.5 128.167,23.5 129.5,23.5C 129.5,25.1667 129.5,26.8333 129.5,28.5C 131.167,28.5 132.833,28.5 134.5,28.5C 134.5,29.8333 134.5,31.1667 134.5,32.5C 136.167,32.5 137.833,32.5 139.5,32.5C 139.5,35.8333 139.5,39.1667 139.5,42.5C 140.5,42.5 141.5,42.5 142.5,42.5C 142.5,47.1667 142.5,51.8333 142.5,56.5C 143.833,56.5 145.167,56.5 146.5,56.5C 146.5,67.8333 146.5,79.1667 146.5,90.5C 145.167,90.5 143.833,90.5 142.5,90.5C 142.5,95.1667 142.5,99.8333 142.5,104.5C 141.5,104.5 140.5,104.5 139.5,104.5C 139.5,107.833 139.5,111.167 139.5,114.5C 137.833,114.5 136.167,114.5 134.5,114.5C 134.5,115.833 134.5,117.167 134.5,118.5C 132.833,118.5 131.167,118.5 129.5,118.5C 129.5,120.167 129.5,121.833 129.5,123.5C 128.167,123.5 126.833,123.5 125.5,123.5C 125.5,125.167 125.5,126.833 125.5,128.5C 124.167,128.5 122.833,128.5 121.5,128.5C 121.5,129.833 121.5,131.167 121.5,132.5C 118.5,132.5 115.5,132.5 112.5,132.5C 112.5,134.167 112.5,135.833 112.5,137.5C 109.5,137.5 106.5,137.5 103.5,137.5C 103.5,139.167 103.5,140.833 103.5,142.5C 100.833,142.5 98.1667,142.5 95.5,142.5C 95.5,143.833 95.5,145.167 95.5,146.5C 80.8333,146.5 66.1667,146.5 51.5,146.5C 51.5,145.167 51.5,143.833 51.5,142.5C 48.8333,142.5 46.1667,142.5 43.5,142.5C 43.5,140.833 43.5,139.167 43.5,137.5C 40.5,137.5 37.5,137.5 34.5,137.5C 34.5,135.833 34.5,134.167 34.5,132.5C 31.5,132.5 28.5,132.5 25.5,132.5C 25.5,131.167 25.5,129.833 25.5,128.5C 24.1667,128.5 22.8333,128.5 21.5,128.5C 21.5,126.833 21.5,125.167 21.5,123.5C 20.1667,123.5 18.8333,123.5 17.5,123.5C 17.5,121.833 17.5,120.167 17.5,118.5C 15.8333,118.5 14.1667,118.5 12.5,118.5C 12.5,117.167 12.5,115.833 12.5,114.5C 10.8333,114.5 9.16667,114.5 7.5,114.5C 7.5,111.167 7.5,107.833 7.5,104.5C 6.5,104.5 5.5,104.5 4.5,104.5C 4.5,99.8333 4.5,95.1667 4.5,90.5C 3.16667,90.5 1.83333,90.5 0.5,90.5C 0.5,79.1667 0.5,67.8333 0.5,56.5C 1.83333,56.5 3.16667,56.5 4.5,56.5C 4.5,51.8333 4.5,47.1667 4.5,42.5C 5.5,42.5 6.5,42.5 7.5,42.5C 7.5,39.1667 7.5,35.8333 7.5,32.5C 9.16667,32.5 10.8333,32.5 12.5,32.5C 12.5,31.1667 12.5,29.8333 12.5,28.5C 14.1667,28.5 15.8333,28.5 17.5,28.5C 17.5,26.8333 17.5,25.1667 17.5,23.5C 18.8333,23.5 20.1667,23.5 21.5,23.5C 21.5,21.8333 21.5,20.1667 21.5,18.5C 22.8333,18.5 24.1667,18.5 25.5,18.5C 25.5,17.1667 25.5,15.8333 25.5,14.5C 28.5,14.5 31.5,14.5 34.5,14.5C 34.5,12.8333 34.5,11.1667 34.5,9.5C 37.5,9.5 40.5,9.5 43.5,9.5C 43.5,7.83333 43.5,6.16667 43.5,4.5C 46.1667,4.5 48.8333,4.5 51.5,4.5C 51.5,3.16667 51.5,1.83333 51.5,0.5 Z"/></g>
<g><path style="opacity:1" fill="#f6073e" d="M 56.5,23.5 C 67.8333,23.5 79.1667,23.5 90.5,23.5C 90.5,25.1667 90.5,26.8333 90.5,28.5C 93.8333,28.5 97.1667,28.5 100.5,28.5C 100.5,29.8333 100.5,31.1667 100.5,32.5C 102.833,32.5 105.167,32.5 107.5,32.5C 107.5,34.1667 107.5,35.8333 107.5,37.5C 109.167,37.5 110.833,37.5 112.5,37.5C 112.5,39.1667 112.5,40.8333 112.5,42.5C 114.167,42.5 115.833,42.5 117.5,42.5C 117.5,43.8333 117.5,45.1667 117.5,46.5C 118.833,46.5 120.167,46.5 121.5,46.5C 121.5,51.1667 121.5,55.8333 121.5,60.5C 122.833,60.5 124.167,60.5 125.5,60.5C 125.5,68.8333 125.5,77.1667 125.5,85.5C 124.167,85.5 122.833,85.5 121.5,85.5C 121.5,90.5 121.5,95.5 121.5,100.5C 120.167,100.5 118.833,100.5 117.5,100.5C 117.5,101.833 117.5,103.167 117.5,104.5C 115.833,104.5 114.167,104.5 112.5,104.5C 112.5,106.167 112.5,107.833 112.5,109.5C 110.833,109.5 109.167,109.5 107.5,109.5C 107.5,111.167 107.5,112.833 107.5,114.5C 105.167,114.5 102.833,114.5 100.5,114.5C 100.5,115.833 100.5,117.167 100.5,118.5C 97.1667,118.5 93.8333,118.5 90.5,118.5C 90.5,120.167 90.5,121.833 90.5,123.5C 79.1667,123.5 67.8333,123.5 56.5,123.5C 56.5,121.833 56.5,120.167 56.5,118.5C 53.1667,118.5 49.8333,118.5 46.5,118.5C 46.5,117.167 46.5,115.833 46.5,114.5C 44.1667,114.5 41.8333,114.5 39.5,114.5C 39.5,112.833 39.5,111.167 39.5,109.5C 37.8333,109.5 36.1667,109.5 34.5,109.5C 34.5,107.833 34.5,106.167 34.5,104.5C 32.8333,104.5 31.1667,104.5 29.5,104.5C 29.5,103.167 29.5,101.833 29.5,100.5C 28.1667,100.5 26.8333,100.5 25.5,100.5C 25.5,95.5 25.5,90.5 25.5,85.5C 24.1667,85.5 22.8333,85.5 21.5,85.5C 21.5,77.1667 21.5,68.8333 21.5,60.5C 22.8333,60.5 24.1667,60.5 25.5,60.5C 25.5,55.8333 25.5,51.1667 25.5,46.5C 26.8333,46.5 28.1667,46.5 29.5,46.5C 29.5,45.1667 29.5,43.8333 29.5,42.5C 31.1667,42.5 32.8333,42.5 34.5,42.5C 34.5,40.8333 34.5,39.1667 34.5,37.5C 36.1667,37.5 37.8333,37.5 39.5,37.5C 39.5,35.8333 39.5,34.1667 39.5,32.5C 41.8333,32.5 44.1667,32.5 46.5,32.5C 46.5,31.1667 46.5,29.8333 46.5,28.5C 49.8333,28.5 53.1667,28.5 56.5,28.5C 56.5,26.8333 56.5,25.1667 56.5,23.5 Z"/></g>
<g><path style="opacity:1" fill="#13eba2" d="M 61.5,37.5 C 69.8333,37.5 78.1667,37.5 86.5,37.5C 86.5,39.1667 86.5,40.8333 86.5,42.5C 89.5,42.5 92.5,42.5 95.5,42.5C 95.5,43.8333 95.5,45.1667 95.5,46.5C 98.1667,46.5 100.833,46.5 103.5,46.5C 103.5,48.1667 103.5,49.8333 103.5,51.5C 104.833,51.5 106.167,51.5 107.5,51.5C 107.5,54.5 107.5,57.5 107.5,60.5C 109.167,60.5 110.833,60.5 112.5,60.5C 112.5,68.8333 112.5,77.1667 112.5,85.5C 110.833,85.5 109.167,85.5 107.5,85.5C 107.5,88.8333 107.5,92.1667 107.5,95.5C 106.167,95.5 104.833,95.5 103.5,95.5C 103.5,97.1667 103.5,98.8333 103.5,100.5C 100.833,100.5 98.1667,100.5 95.5,100.5C 95.5,101.833 95.5,103.167 95.5,104.5C 92.5,104.5 89.5,104.5 86.5,104.5C 86.5,106.167 86.5,107.833 86.5,109.5C 78.1667,109.5 69.8333,109.5 61.5,109.5C 61.5,107.833 61.5,106.167 61.5,104.5C 58.1667,104.5 54.8333,104.5 51.5,104.5C 51.5,103.167 51.5,101.833 51.5,100.5C 48.8333,100.5 46.1667,100.5 43.5,100.5C 43.5,98.8333 43.5,97.1667 43.5,95.5C 42.1667,95.5 40.8333,95.5 39.5,95.5C 39.5,92.1667 39.5,88.8333 39.5,85.5C 37.8333,85.5 36.1667,85.5 34.5,85.5C 34.5,77.1667 34.5,68.8333 34.5,60.5C 36.1667,60.5 37.8333,60.5 39.5,60.5C 39.5,57.5 39.5,54.5 39.5,51.5C 40.8333,51.5 42.1667,51.5 43.5,51.5C 43.5,49.8333 43.5,48.1667 43.5,46.5C 46.1667,46.5 48.8333,46.5 51.5,46.5C 51.5,45.1667 51.5,43.8333 51.5,42.5C 54.8333,42.5 58.1667,42.5 61.5,42.5C 61.5,40.8333 61.5,39.1667 61.5,37.5 Z"/></g>
<g><path style="opacity:1" fill="#16e862" d="M 64.5,51.5 C 70.5,51.5 76.5,51.5 82.5,51.5C 82.5,53.1667 82.5,54.8333 82.5,56.5C 85.1667,56.5 87.8333,56.5 90.5,56.5C 90.5,59.5 90.5,62.5 90.5,65.5C 92.1667,65.5 93.8333,65.5 95.5,65.5C 95.5,70.8333 95.5,76.1667 95.5,81.5C 93.8333,81.5 92.1667,81.5 90.5,81.5C 90.5,84.5 90.5,87.5 90.5,90.5C 87.8333,90.5 85.1667,90.5 82.5,90.5C 82.5,92.1667 82.5,93.8333 82.5,95.5C 76.5,95.5 70.5,95.5 64.5,95.5C 64.5,93.8333 64.5,92.1667 64.5,90.5C 61.8333,90.5 59.1667,90.5 56.5,90.5C 56.5,87.5 56.5,84.5 56.5,81.5C 54.8333,81.5 53.1667,81.5 51.5,81.5C 51.5,76.1667 51.5,70.8333 51.5,65.5C 53.1667,65.5 54.8333,65.5 56.5,65.5C 56.5,62.5 56.5,59.5 56.5,56.5C 59.1667,56.5 61.8333,56.5 64.5,56.5C 64.5,54.8333 64.5,53.1667 64.5,51.5 Z"/></g>
<g><path style="opacity:1" fill="#0cf2f1" d="M 68.5,56.5 C 71.8333,56.5 75.1667,56.5 78.5,56.5C 78.5,57.8333 78.5,59.1667 78.5,60.5C 79.8333,60.5 81.1667,60.5 82.5,60.5C 82.5,62.1667 82.5,63.8333 82.5,65.5C 83.8333,65.5 85.1667,65.5 86.5,65.5C 86.5,69.1667 86.5,72.8333 86.5,76.5C 85.1667,76.5 83.8333,76.5 82.5,76.5C 82.5,78.1667 82.5,79.8333 82.5,81.5C 81.1667,81.5 79.8333,81.5 78.5,81.5C 78.5,82.8333 78.5,84.1667 78.5,85.5C 75.1667,85.5 71.8333,85.5 68.5,85.5C 68.5,84.1667 68.5,82.8333 68.5,81.5C 67.1667,81.5 65.8333,81.5 64.5,81.5C 64.5,79.8333 64.5,78.1667 64.5,76.5C 63.5,76.5 62.5,76.5 61.5,76.5C 61.5,72.8333 61.5,69.1667 61.5,65.5C 62.5,65.5 63.5,65.5 64.5,65.5C 64.5,63.8333 64.5,62.1667 64.5,60.5C 65.8333,60.5 67.1667,60.5 68.5,60.5C 68.5,59.1667 68.5,57.8333 68.5,56.5 Z"/></g>
</svg>
